<svg width="59" height="44" viewBox="0 0 59 44" fill="none" xmlns="http://www.w3.org/2000/svg">
<path d="M1.27882 36.0166L1.26851 34.5678L7.58854 24.4544H8.63967L8.65566 26.6987H7.94543L3.1703 34.3405L3.17111 34.4542H11.7791L11.7902 36.0166H1.27882ZM8.14666 38.9995L8.12228 35.5763L8.11748 34.9016L8.04308 24.4544H9.71922L9.82279 38.9995H8.14666ZM24.1706 24.4544H25.9319L26.0005 34.0849C26.0076 35.0792 25.7795 35.9669 25.3163 36.7482C24.8579 37.5246 24.2065 38.1378 23.3621 38.5876C22.5177 39.0327 21.525 39.2552 20.3839 39.2552C19.2428 39.2552 18.2469 39.0327 17.3962 38.5876C16.5455 38.1378 15.883 37.5246 15.4087 36.7482C14.9391 35.9669 14.7008 35.0792 14.6937 34.0849L14.6251 24.4544H16.3865L16.454 33.9428C16.4591 34.653 16.6199 35.2851 16.9363 35.8391C17.2527 36.3883 17.7009 36.8215 18.2808 37.1388C18.8654 37.4513 19.5625 37.6075 20.3722 37.6075C21.1818 37.6075 21.8768 37.4513 22.4569 37.1388C23.037 36.8215 23.479 36.3883 23.7829 35.8391C24.0914 35.2851 24.2432 34.653 24.2381 33.9428L24.1706 24.4544Z" fill="#36548A"/>
<ellipse cx="3.4563" cy="3.37435" rx="3.4563" ry="3.37435" transform="matrix(0.992876 0.119149 -0.128274 0.991739 44.3335 27.95)" fill="#36548A"/>
<path d="M47.4732 33.6132C48.3155 33.7143 49.0845 33.1304 49.1907 32.3089C49.297 31.4875 48.7002 30.7397 47.8579 30.6386C47.0156 30.5375 46.2466 31.1214 46.1403 31.9429C46.0341 32.7643 46.6308 33.5121 47.4732 33.6132Z" fill="black"/>
<path d="M48.4922 31.3673C48.7037 31.3927 48.8539 31.5785 48.8275 31.7823C48.8012 31.9861 48.6083 32.1308 48.3967 32.1054C48.1851 32.08 48.035 31.8942 48.0613 31.6904C48.0877 31.4866 48.2806 31.3419 48.4922 31.3673Z" fill="#D8D8D8"/>
<path d="M44.9749 39.2499C42.9192 39.2547 41.1442 38.9508 39.6501 38.3385C38.1559 37.7261 37.0056 36.8839 36.199 35.812C35.3925 34.7401 34.9929 33.5146 35.0001 32.1356C35.0073 30.7565 35.4198 29.5292 36.2376 28.4535C37.0553 27.3779 38.2145 26.5304 39.7151 25.9111C41.2157 25.2918 42.9939 24.9798 45.0496 24.9751C47.1054 24.9703 48.8803 25.2742 50.3745 25.8865C51.8686 26.4989 53.019 27.3411 53.8255 28.413C54.632 29.4849 55.0316 30.7104 55.0244 32.0894C55.0172 33.4685 54.6047 34.6958 53.7869 35.7715C52.9692 36.8471 51.81 37.6946 50.3094 38.3139C48.8088 38.9332 47.0306 39.2452 44.9749 39.2499ZM44.9848 37.355C46.6725 37.3512 48.0982 37.1136 49.2617 36.6425C50.4253 36.1766 51.3073 35.5456 51.9079 34.7494C52.5085 33.9585 52.8113 33.0735 52.8164 32.0945C52.8215 31.1155 52.528 30.2293 51.9357 29.4358C51.3434 28.6477 50.468 28.0207 49.3093 27.5549C48.1506 27.0944 46.7274 26.8661 45.0397 26.87C43.352 26.8738 41.9263 27.1087 40.7628 27.5746C39.5993 28.0457 38.7172 28.6768 38.1167 29.4677C37.5161 30.2638 37.2132 31.1515 37.2081 32.1305C37.203 33.1095 37.4966 33.9931 38.0888 34.7813C38.6811 35.5747 39.5566 36.2017 40.7152 36.6622C41.8739 37.128 43.2971 37.3589 44.9848 37.355Z" fill="#36548A"/>
<line x1="45.8618" y1="22" x2="45.8618" y2="25.7188" stroke="#36548A" stroke-width="2"/>
<path d="M51.919 23.201L50.8792 24.9569L49.8394 26.7128" stroke="#36548A" stroke-width="2"/>
<path d="M40.0274 22.7437L40.6394 24.6031L41.2514 26.4625" stroke="#36548A" stroke-width="2"/>
<path d="M56.5518 26.7073L54.5118 28.0314L52.4718 29.3555" stroke="#36548A" stroke-width="2"/>
<path d="M35 25.4702L36.5583 26.8998L38.1166 28.3295" stroke="#36548A" stroke-width="2"/>
<path d="M1.82901 18.9999L1.77722 4.45452H10.5556L10.5612 6.01701H3.54415L3.56165 10.9317H10.1241L10.1297 12.4942H3.56721L3.58481 17.4374H10.7155L10.7211 18.9999H1.82901ZM13.7303 4.45452H15.8326L20.8188 16.5283H20.9892L25.8894 4.45452H27.9917L28.0435 18.9999H26.3958L26.3564 7.94881H26.2144L21.7083 18.9999H20.1174L15.5326 7.94881H15.3905L15.4299 18.9999H13.7821L13.7303 4.45452ZM36.0637 18.9999H31.5751L31.5233 4.45452H36.2108C37.6218 4.45452 38.8302 4.74571 39.8361 5.32809C40.8419 5.90574 41.6143 6.7367 42.1532 7.82097C42.6921 8.90051 42.9642 10.1931 42.9696 11.6988C42.975 13.2139 42.7097 14.5184 42.1738 15.6121C41.6379 16.7011 40.8549 17.5392 39.8248 18.1263C38.7947 18.7087 37.541 18.9999 36.0637 18.9999ZM33.3309 17.4374H35.9445C37.1472 17.4374 38.1431 17.2054 38.9321 16.7414C39.7212 16.2774 40.3083 15.6169 40.6935 14.7598C41.0787 13.9028 41.2692 12.8825 41.265 11.6988C41.2608 10.5246 41.0655 9.51367 40.6789 8.66614C40.2924 7.81387 39.7171 7.16047 38.9532 6.70592C38.1893 6.24665 37.2391 6.01701 36.1027 6.01701H33.2902L33.3309 17.4374ZM45.9501 18.9999L45.8983 4.45452H50.8131C51.9495 4.45452 52.8829 4.64864 53.6135 5.0369C54.344 5.42042 54.8856 5.94835 55.2384 6.6207C55.5912 7.29304 55.7691 8.05771 55.7722 8.91472C55.7752 9.77172 55.6027 10.5317 55.2547 11.1945C54.9067 11.8574 54.3711 12.3782 53.648 12.757C52.9249 13.1311 52 13.3181 50.8731 13.3181H46.8958L46.8901 11.7272H50.8106C51.5871 11.7272 52.2117 11.6136 52.6844 11.3863C53.1618 11.159 53.5063 10.8371 53.7179 10.4204C53.9342 9.99899 54.0413 9.4971 54.0392 8.91472C54.0371 8.33233 53.9264 7.82334 53.7071 7.38774C53.4877 6.95213 53.1385 6.61596 52.6594 6.37922C52.1804 6.13774 51.5478 6.01701 50.7618 6.01701H47.6652L47.7115 18.9999H45.9501ZM52.7734 12.4658L56.3762 18.9999H54.3308L50.7848 12.4658H52.7734Z" fill="#36548A"/>
</svg>
