<svg width="80" height="57" viewBox="0 0 80 57" fill="none" xmlns="http://www.w3.org/2000/svg" xmlns:bx="https://boxy-svg.com">
  <defs>
    <bx:export>
      <bx:file format="svg"></bx:file>
    </bx:export>
  </defs>
  <path d="M 14.788 12.17 C 14.651 11.081 14.121 10.236 13.198 9.634 C 12.276 9.033 11.147 8.732 9.813 8.732 C 8.837 8.732 7.984 8.889 7.255 9.205 C 6.533 9.52 5.969 9.953 5.564 10.505 C 5.166 11.056 4.97 11.683 4.975 12.385 C 4.979 12.972 5.122 13.477 5.405 13.899 C 5.695 14.315 6.064 14.662 6.51 14.942 C 6.957 15.214 7.425 15.439 7.914 15.618 C 8.403 15.79 8.853 15.93 9.262 16.037 L 11.505 16.639 C 12.08 16.789 12.72 16.997 13.425 17.262 C 14.137 17.527 14.818 17.889 15.467 18.347 C 16.123 18.798 16.665 19.379 17.093 20.088 C 17.521 20.797 17.739 21.667 17.747 22.698 C 17.755 23.887 17.451 24.962 16.833 25.921 C 16.223 26.881 15.325 27.644 14.138 28.21 C 12.958 28.775 11.522 29.058 9.829 29.058 C 8.25 29.058 6.882 28.804 5.723 28.296 C 4.572 27.787 3.663 27.078 2.996 26.168 C 2.337 25.259 1.96 24.202 1.865 22.999 L 4.62 22.999 C 4.698 23.83 4.982 24.517 5.474 25.062 C 5.973 25.599 6.6 26 7.355 26.265 C 8.117 26.523 8.936 26.652 9.811 26.652 C 10.83 26.652 11.744 26.487 12.552 26.158 C 13.36 25.821 13.999 25.355 14.468 24.761 C 14.938 24.159 15.169 23.457 15.164 22.655 C 15.158 21.925 14.95 21.33 14.537 20.872 C 14.125 20.413 13.585 20.041 12.915 19.755 C 12.246 19.468 11.523 19.217 10.747 19.003 L 8.03 18.229 C 6.304 17.735 4.936 17.029 3.925 16.113 C 2.914 15.196 2.404 13.996 2.393 12.514 C 2.384 11.282 2.71 10.207 3.371 9.291 C 4.039 8.367 4.937 7.65 6.067 7.142 C 7.204 6.626 8.476 6.368 9.882 6.368 C 11.302 6.368 12.567 6.623 13.675 7.131 C 14.784 7.633 15.664 8.32 16.316 9.194 C 16.975 10.068 17.326 11.06 17.37 12.17 L 14.788 12.17 Z M 22.177 28.672 L 22.02 6.669 L 29.467 6.669 C 31.196 6.669 32.612 6.981 33.714 7.604 C 34.823 8.22 35.647 9.054 36.185 10.107 C 36.724 11.16 36.997 12.334 37.007 13.631 C 37.016 14.927 36.759 16.105 36.235 17.165 C 35.719 18.225 34.915 19.071 33.821 19.701 C 32.728 20.324 31.324 20.636 29.61 20.636 L 24.272 20.636 L 24.255 18.272 L 29.507 18.272 C 30.69 18.272 31.64 18.068 32.354 17.66 C 33.069 17.251 33.585 16.7 33.903 16.005 C 34.228 15.303 34.387 14.512 34.381 13.631 C 34.375 12.75 34.204 11.962 33.869 11.267 C 33.541 10.573 33.014 10.028 32.286 9.634 C 31.559 9.233 30.596 9.033 29.398 9.033 L 24.706 9.033 L 24.846 28.672 L 22.177 28.672 Z" fill="#36548A" style=""></path>
  <ellipse cx="33.005" cy="46.053" rx="4.54" ry="4.589" transform="matrix(0.992353, 0.12343, -0.12383, 0.992303, 6.382221, -3.841545)" fill="#36548A" style=""></ellipse>
  <path d="M 33.617 47.511 C 34.723 47.648 35.732 46.854 35.872 45.736 C 36.011 44.618 35.228 43.601 34.122 43.463 C 33.016 43.326 32.006 44.12 31.867 45.238 C 31.728 46.356 32.511 47.373 33.617 47.511 Z" fill="black" style=""></path>
  <path d="M 34.955 44.455 C 35.232 44.489 35.429 44.742 35.395 45.02 C 35.36 45.297 35.107 45.494 34.829 45.459 C 34.552 45.425 34.354 45.172 34.389 44.894 C 34.424 44.617 34.677 44.42 34.955 44.455 Z" fill="#D8D8D8" style=""></path>
  <ellipse cx="52.005" cy="19.053" rx="4.54" ry="4.589" transform="matrix(0.992353, 0.12343, -0.12383, 0.992303, 3.44467, -6.719877)" fill="#36548A" style=""></ellipse>
  <path d="M 52.877 21.198 C 53.983 21.335 54.993 20.541 55.132 19.423 C 55.272 18.305 54.488 17.287 53.382 17.15 C 52.277 17.012 51.267 17.807 51.128 18.925 C 50.988 20.042 51.771 21.06 52.877 21.198 Z" fill="black" style=""></path>
  <path d="M 54.215 18.142 C 54.493 18.176 54.69 18.429 54.656 18.706 C 54.621 18.984 54.368 19.18 54.09 19.146 C 53.812 19.111 53.615 18.858 53.65 18.581 C 53.684 18.304 53.937 18.107 54.215 18.142 Z" fill="#D8D8D8" style=""></path>
  <path d="M 2.853 55.997 L 2.696 33.995 L 5.364 33.995 L 5.442 44.91 L 5.701 44.91 L 15.523 33.995 L 19.01 33.995 L 9.826 43.921 L 19.167 55.997 L 15.938 55.997 L 8.203 45.769 L 5.47 48.863 L 5.521 55.997 L 2.853 55.997 Z" fill="#36548A" style=""></path>
  <path d="M 31.527 56.193 C 29.203 56.2 27.196 55.786 25.507 54.953 C 23.817 54.12 22.516 52.974 21.604 51.515 C 20.693 50.056 20.241 48.389 20.249 46.512 C 20.257 44.636 20.723 42.966 21.648 41.502 C 22.573 40.038 23.883 38.885 25.58 38.042 C 27.277 37.2 29.288 36.775 31.612 36.769 C 33.936 36.762 35.943 37.176 37.633 38.009 C 39.322 38.842 40.623 39.988 41.535 41.447 C 42.447 42.905 42.899 44.573 42.891 46.45 C 42.882 48.326 42.416 49.996 41.491 51.46 C 40.567 52.923 39.256 54.077 37.559 54.919 C 35.862 55.762 33.852 56.187 31.527 56.193 Z M 31.539 53.615 C 33.447 53.609 35.059 53.286 36.375 52.645 C 37.69 52.011 38.688 51.152 39.367 50.069 C 40.046 48.993 40.388 47.789 40.394 46.456 C 40.4 45.124 40.068 43.918 39.398 42.839 C 38.728 41.766 37.738 40.913 36.428 40.279 C 35.118 39.653 33.509 39.342 31.601 39.347 C 29.692 39.352 28.08 39.672 26.765 40.306 C 25.449 40.947 24.452 41.806 23.773 42.882 C 23.094 43.965 22.751 45.173 22.745 46.505 C 22.74 47.838 23.072 49.04 23.741 50.112 C 24.411 51.192 25.401 52.045 26.711 52.672 C 28.021 53.306 29.63 53.62 31.539 53.615 Z" fill="#36548A" style=""></path>
  <path d="M 50.788 28.868 C 48.464 28.874 46.457 28.461 44.767 27.627 C 43.078 26.794 41.777 25.648 40.865 24.19 C 39.953 22.731 39.501 21.064 39.509 19.187 C 39.518 17.31 39.984 15.64 40.909 14.177 C 41.833 12.713 43.144 11.56 44.841 10.717 C 46.537 9.874 48.548 9.45 50.873 9.443 C 53.197 9.437 55.204 9.85 56.893 10.684 C 58.583 11.517 59.883 12.663 60.795 14.122 C 61.707 15.58 62.159 17.248 62.151 19.124 C 62.143 21.001 61.676 22.671 60.752 24.134 C 59.827 25.598 58.517 26.751 56.82 27.594 C 55.123 28.437 53.112 28.861 50.788 28.868 Z M 50.799 26.289 C 52.708 26.284 54.32 25.961 55.635 25.32 C 56.951 24.686 57.948 23.827 58.627 22.744 C 59.306 21.668 59.649 20.463 59.654 19.131 C 59.66 17.799 59.328 16.593 58.659 15.513 C 57.989 14.441 56.999 13.588 55.689 12.954 C 54.379 12.327 52.77 12.017 50.861 12.022 C 48.953 12.027 47.341 12.347 46.025 12.981 C 44.71 13.622 43.712 14.48 43.033 15.557 C 42.354 16.64 42.012 17.848 42.006 19.18 C 42 20.512 42.332 21.715 43.002 22.787 C 43.672 23.867 44.661 24.72 45.972 25.347 C 47.282 25.98 48.891 26.295 50.799 26.289 Z" fill="#36548A" style=""></path>
  <line x1="51.674" y1="5.395" x2="51.674" y2="10.455" stroke="#36548A" stroke-width="2" style=""></line>
  <path d="M 58.64 7.029 L 57.464 9.419 L 56.288 11.808" stroke="#36548A" stroke-width="2" style=""></path>
  <path d="M 45.194 6.407 L 45.886 8.937 L 46.578 11.467" stroke="#36548A" stroke-width="2" style=""></path>
  <path d="M 63.878 11.801 L 61.571 13.602 L 59.265 15.404" stroke="#36548A" stroke-width="2" style=""></path>
  <path d="M 39.509 10.117 L 41.271 12.063 L 43.033 14.008" stroke="#36548A" stroke-width="2" style=""></path>
  <line x1="32.413" y1="32.721" x2="32.413" y2="37.781" stroke="#36548A" stroke-width="2" style=""></line>
  <path d="M 39.379 34.355 L 38.203 36.744 L 37.028 39.133" stroke="#36548A" stroke-width="2" style=""></path>
  <path d="M 25.933 33.733 L 26.625 36.263 L 27.317 38.793" stroke="#36548A" stroke-width="2" style=""></path>
  <path d="M 44.618 39.126 L 42.311 40.928 L 40.004 42.729" stroke="#36548A" stroke-width="2" style=""></path>
  <path d="M 20.249 37.442 L 22.011 39.388 L 23.773 41.333" stroke="#36548A" stroke-width="2" style=""></path>
</svg>