<svg width="103" height="57" viewBox="0 0 103 57" fill="none" xmlns="http://www.w3.org/2000/svg">
<path d="M14.6127 12.694C14.4776 11.6183 13.955 10.7832 13.0449 10.1887C12.1348 9.59425 11.0216 9.29702 9.70526 9.29702C8.74277 9.29702 7.9017 9.45271 7.18205 9.7641C6.46948 10.0755 5.91343 10.5036 5.51391 11.0486C5.12148 11.5935 4.92772 12.2127 4.93266 12.9063C4.9368 13.4866 5.07835 13.9855 5.35733 14.403C5.64334 14.8135 6.00672 15.1567 6.44747 15.4327C6.88817 15.7017 7.34977 15.9246 7.83227 16.1015C8.31473 16.2714 8.75803 16.4094 9.16218 16.5155L11.3745 17.11C11.9417 17.2586 12.573 17.4638 13.2685 17.7257C13.971 17.9875 14.6423 18.3449 15.2825 18.7978C15.9297 19.2437 16.4645 19.8169 16.8871 20.5175C17.3096 21.2182 17.5245 22.078 17.5318 23.0971C17.5401 24.2719 17.2398 25.3334 16.6309 26.2817C16.029 27.23 15.1426 27.9837 13.9718 28.5428C12.8081 29.1019 11.3911 29.3814 9.72089 29.3814C8.16392 29.3814 6.81394 29.1302 5.67094 28.6277C4.53502 28.1253 3.63831 27.4246 2.98082 26.5259C2.3304 25.6271 1.95849 24.5832 1.8651 23.3943H4.58272C4.65934 24.2152 4.94018 24.8946 5.42526 25.4325C5.91736 25.9632 6.53589 26.3596 7.28086 26.6214C8.03285 26.8762 8.84055 27.0036 9.70396 27.0036C10.7089 27.0036 11.6101 26.8408 12.4075 26.5153C13.2048 26.1826 13.835 25.7226 14.2979 25.1352C14.7607 24.5408 14.9893 23.8472 14.9837 23.0546C14.9785 22.3328 14.7727 21.7454 14.366 21.2925C13.9594 20.8395 13.426 20.4715 12.7658 20.1885C12.1056 19.9054 11.3926 19.6577 10.6268 19.4454L7.94618 18.6811C6.24419 18.1928 4.89457 17.4957 3.89732 16.5898C2.90007 15.684 2.39623 14.4986 2.3858 13.0337C2.37713 11.8164 2.69866 10.7549 3.35039 9.84902C4.00913 8.9361 4.89581 8.2284 6.01042 7.72594C7.13206 7.2164 8.38644 6.96163 9.77356 6.96163C11.1748 6.96163 12.4222 7.21286 13.5156 7.71532C14.6091 8.21071 15.4773 8.8901 16.1204 9.75348C16.7706 10.6169 17.1172 11.597 17.1604 12.694H14.6127ZM21.9023 28.9993L21.7475 7.25886H29.0936C30.7992 7.25886 32.1956 7.56671 33.2828 8.1824C34.377 8.79102 35.1896 9.61548 35.7208 10.6558C36.2519 11.6961 36.522 12.8567 36.5311 14.1377C36.5402 15.4186 36.2867 16.5827 35.7704 17.6301C35.2612 18.6775 34.4675 19.5126 33.3891 20.1354C32.3107 20.7511 30.9258 21.0589 29.2343 21.0589H23.9689L23.9523 18.7235H29.1328C30.3005 18.7235 31.2368 18.5218 31.9416 18.1184C32.6465 17.7151 33.1557 17.1701 33.4693 16.4837C33.7899 15.7901 33.9471 15.0081 33.9409 14.1377C33.9347 13.2672 33.7664 12.4887 33.4359 11.8023C33.1126 11.1158 32.5921 10.578 31.8745 10.1887C31.1569 9.79241 30.2072 9.59425 29.0253 9.59425H24.3969L24.535 28.9993H21.9023Z" fill="#36548A"/>
<ellipse cx="33.0049" cy="46.0531" rx="4.47866" ry="4.53422" transform="rotate(7.10165 33.0049 46.0531)" fill="#36548A"/>
<path d="M33.1872 47.6143C34.2781 47.7502 35.274 46.9651 35.4116 45.8607C35.5492 44.7562 34.7764 43.7507 33.6855 43.6148C32.5946 43.4789 31.5987 44.2641 31.4611 45.3685C31.3235 46.4729 32.0963 47.4784 33.1872 47.6143Z" fill="black"/>
<path d="M34.5069 44.5946C34.781 44.6288 34.9754 44.8786 34.9413 45.1526C34.9071 45.4267 34.6573 45.6211 34.3833 45.587C34.1093 45.5528 33.9148 45.303 33.949 45.029C33.9831 44.755 34.2329 44.5605 34.5069 44.5946Z" fill="#D8D8D8"/>
<ellipse cx="52.0049" cy="19.0531" rx="4.47866" ry="4.53422" transform="rotate(7.10165 52.0049 19.0531)" fill="#36548A"/>
<path d="M52.1872 21.6143C53.2781 21.7502 54.274 20.9651 54.4116 19.8607C54.5492 18.7562 53.7764 17.7507 52.6855 17.6148C51.5946 17.4789 50.5987 18.2641 50.4611 19.3685C50.3235 20.4729 51.0963 21.4784 52.1872 21.6143Z" fill="black"/>
<path d="M53.5069 18.5946C53.781 18.6288 53.9754 18.8786 53.9413 19.1526C53.9071 19.4266 53.6573 19.6211 53.3833 19.587C53.1093 19.5528 52.9148 19.303 52.949 19.029C52.9831 18.755 53.2329 18.5605 53.5069 18.5946Z" fill="#D8D8D8"/>
<path d="M2.83919 55.9993L2.68438 34.2589H5.31708L5.39388 45.0441H5.64865L15.3383 34.2589H18.7778L9.71813 44.0675L18.9326 55.9993H15.7479L8.11754 45.8934L5.42169 48.9506L5.47189 55.9993H2.83919Z" fill="#36548A"/>
<path d="M31.1261 56.1931C28.8331 56.1995 26.8533 55.7909 25.1867 54.9676C23.5201 54.1442 22.237 53.0119 21.3374 51.5707C20.4378 50.1295 19.9921 48.4818 20.0001 46.6276C20.0082 44.7734 20.4683 43.1232 21.3804 41.677C22.2925 40.2307 23.5855 39.0913 25.2593 38.2586C26.9331 37.426 28.9165 37.0064 31.2095 37.0001C33.5024 36.9937 35.4822 37.4022 37.1488 38.2256C38.8154 39.049 40.0985 40.1813 40.9981 41.6225C41.8977 43.0637 42.3435 44.7114 42.3355 46.5656C42.3274 48.4197 41.8673 50.07 40.9552 51.5162C40.043 52.9624 38.7501 54.1019 37.0763 54.9345C35.4025 55.7672 33.4191 56.1867 31.1261 56.1931ZM31.1372 53.6453C33.0197 53.6401 34.6099 53.3208 35.9077 52.6873C37.2055 52.0609 38.1894 51.2125 38.8593 50.142C39.5291 49.0786 39.8669 47.8887 39.8726 46.5724C39.8783 45.2561 39.5509 44.0645 38.8903 42.9977C38.2297 41.938 37.2531 41.095 35.9608 40.4688C34.6684 39.8496 33.0809 39.5426 31.1984 39.5478C29.3159 39.553 27.7257 39.8689 26.4279 40.4952C25.1301 41.1287 24.1462 41.9771 23.4763 43.0405C22.8065 44.111 22.4687 45.3044 22.4629 46.6208C22.4572 47.9371 22.7847 49.1251 23.4453 50.1848C24.1059 51.2516 25.0824 52.0946 26.3748 52.7138C27.6672 53.3401 29.2547 53.6506 31.1372 53.6453Z" fill="#36548A"/>
<path d="M50.1261 29.1931C47.8331 29.1995 45.8533 28.7909 44.1867 27.9676C42.5201 27.1442 41.237 26.0119 40.3374 24.5707C39.4378 23.1295 38.9921 21.4818 39.0001 19.6276C39.0082 17.7734 39.4683 16.1232 40.3804 14.677C41.2925 13.2307 42.5855 12.0913 44.2593 11.2586C45.9331 10.426 47.9165 10.0064 50.2095 10.0001C52.5024 9.9937 54.4822 10.4022 56.1488 11.2256C57.8154 12.049 59.0985 13.1813 59.9981 14.6225C60.8977 16.0637 61.3435 17.7114 61.3355 19.5656C61.3274 21.4197 60.8673 23.07 59.9552 24.5162C59.043 25.9624 57.7501 27.1019 56.0763 27.9345C54.4025 28.7672 52.4191 29.1867 50.1261 29.1931ZM50.1372 26.6453C52.0197 26.6401 53.6099 26.3208 54.9077 25.6873C56.2055 25.0609 57.1894 24.2125 57.8593 23.142C58.5291 22.0786 58.8669 20.8887 58.8726 19.5724C58.8783 18.2561 58.5509 17.0645 57.8903 15.9977C57.2297 14.938 56.2531 14.095 54.9608 13.4688C53.6684 12.8496 52.0809 12.5426 50.1984 12.5478C48.3159 12.553 46.7257 12.8689 45.4279 13.4952C44.1301 14.1287 43.1462 14.9771 42.4763 16.0405C41.8065 17.111 41.4687 18.3044 41.4629 19.6208C41.4572 20.9371 41.7847 22.1251 42.4453 23.1848C43.1059 24.2516 44.0824 25.0946 45.3748 25.7138C46.6672 26.3401 48.2547 26.6506 50.1372 26.6453Z" fill="#36548A"/>
<line x1="51" y1="6" x2="51" y2="11" stroke="#36548A" stroke-width="2"/>
<path d="M57.8717 7.61478L56.7118 9.97562L55.552 12.3365" stroke="#36548A" stroke-width="2"/>
<path d="M44.6076 7L45.2902 9.5L45.9729 12" stroke="#36548A" stroke-width="2"/>
<path d="M63.0392 12.3291L60.7637 14.1094L58.4883 15.8897" stroke="#36548A" stroke-width="2"/>
<path d="M39 10.6657L40.7381 12.588L42.4762 14.5102" stroke="#36548A" stroke-width="2"/>
<line x1="32" y1="33" x2="32" y2="38" stroke="#36548A" stroke-width="2"/>
<path d="M38.8717 34.6148L37.7118 36.9756L36.552 39.3365" stroke="#36548A" stroke-width="2"/>
<path d="M25.6076 34L26.2902 36.5L26.9729 39" stroke="#36548A" stroke-width="2"/>
<path d="M44.0392 39.3291L41.7637 41.1094L39.4883 42.8897" stroke="#36548A" stroke-width="2"/>
<path d="M20 37.6657L21.7381 39.588L23.4762 41.5102" stroke="#36548A" stroke-width="2"/>
</svg>
