<svg width="104" height="31" viewBox="0 0 104 31" fill="none" xmlns="http://www.w3.org/2000/svg">
<path d="M15.1219 13.0621C14.9869 11.9864 14.4643 11.1513 13.5542 10.5568C12.6441 9.96235 11.5309 9.66512 10.2145 9.66512C9.25205 9.66512 8.41098 9.82081 7.69133 10.1322C6.97875 10.4436 6.42271 10.8717 6.02319 11.4167C5.63075 11.9616 5.437 12.5808 5.44194 13.2744C5.44607 13.8547 5.58763 14.3536 5.86661 14.7711C6.15262 15.1816 6.516 15.5248 6.95675 15.8008C7.39744 16.0698 7.85904 16.2927 8.34155 16.4696C8.824 16.6395 9.26731 16.7775 9.67146 16.8836L11.8838 17.4781C12.451 17.6267 13.0823 17.8319 13.7777 18.0938C14.4802 18.3556 15.1516 18.713 15.7917 19.1659C16.4389 19.6118 16.9738 20.185 17.3963 20.8856C17.8189 21.5862 18.0338 22.4461 18.041 23.4652C18.0494 24.64 17.7491 25.7015 17.1401 26.6498C16.5383 27.5981 15.6519 28.3518 14.4811 28.9109C13.3173 29.47 11.9004 29.7495 10.2302 29.7495C8.6732 29.7495 7.32321 29.4983 6.18022 28.9958C5.0443 28.4934 4.14759 27.7927 3.49009 26.894C2.83967 25.9952 2.46777 24.9513 2.37438 23.7624H5.092C5.16861 24.5833 5.44946 25.2627 5.93453 25.8006C6.42664 26.3313 7.04517 26.7277 7.79013 26.9895C8.54212 27.2443 9.34982 27.3717 10.2132 27.3717C11.2182 27.3717 12.1194 27.2089 12.9168 26.8833C13.7141 26.5507 14.3442 26.0907 14.8071 25.5033C15.27 24.9089 15.4986 24.2153 15.493 23.4227C15.4878 22.7009 15.2819 22.1135 14.8753 21.6606C14.4687 21.2076 13.9353 20.8396 13.2751 20.5566C12.6149 20.2735 11.9019 20.0258 11.1361 19.8135L8.45546 19.0492C6.75347 18.5608 5.40385 17.8638 4.4066 16.9579C3.40935 16.0521 2.90551 14.8667 2.89508 13.4017C2.88641 12.1845 3.20794 11.123 3.85966 10.2171C4.51841 9.30419 5.40509 8.5965 6.5197 8.09403C7.64134 7.58449 8.89571 7.32972 10.2828 7.32972C11.6841 7.32972 12.9315 7.58095 14.0249 8.08342C15.1183 8.5788 15.9866 9.25819 16.6297 10.1216C17.2798 10.985 17.6265 11.9651 17.6697 13.0621H15.1219ZM22.4116 29.3674L22.2568 7.62695H29.6029C31.3085 7.62695 32.7048 7.9348 33.792 8.5505C34.8862 9.15911 35.6989 9.98358 36.23 11.0239C36.7611 12.0642 37.0313 13.2248 37.0404 14.5058C37.0495 15.7867 36.7959 16.9508 36.2797 17.9982C35.7705 19.0456 34.9767 19.8807 33.8984 20.5035C32.82 21.1192 31.435 21.427 29.7436 21.427H24.4782L24.4616 19.0916H29.642C30.8098 19.0916 31.7461 18.8899 32.4509 18.4865C33.1557 18.0832 33.665 17.5382 33.9785 16.8518C34.2991 16.1582 34.4564 15.3762 34.4502 14.5058C34.444 13.6353 34.2756 12.8568 33.9452 12.1704C33.6218 11.4839 33.1014 10.946 32.3838 10.5568C31.6662 10.1605 30.7165 9.96235 29.5346 9.96235H24.9061L25.0443 29.3674H22.4116ZM59.6537 18.4972C59.67 20.7901 59.2701 22.7716 58.454 24.4418C57.6379 26.112 56.5112 27.4 55.0739 28.3058C53.6366 29.2117 51.9908 29.6646 50.1366 29.6646C48.2824 29.6646 46.6302 29.2117 45.18 28.3058C43.7299 27.4 42.5848 26.112 41.7449 24.4418C40.905 22.7716 40.4768 20.7901 40.4605 18.4972C40.4442 16.2042 40.8441 14.2227 41.6602 12.5525C42.4764 10.8824 43.6031 9.59435 45.0404 8.6885C46.4776 7.78265 48.1234 7.32972 49.9776 7.32972C51.8318 7.32972 53.484 7.78265 54.9342 8.6885C56.3844 9.59435 57.5294 10.8824 58.3693 12.5525C59.2093 14.2227 59.6374 16.2042 59.6537 18.4972ZM57.1059 18.4972C57.0925 16.6147 56.7663 15.0259 56.1272 13.7308C55.4952 12.4357 54.6425 11.4556 53.5691 10.7904C52.5028 10.1251 51.3115 9.7925 49.9951 9.7925C48.6788 9.7925 47.4887 10.1251 46.4247 10.7904C45.3679 11.4556 44.5292 12.4357 43.9085 13.7308C43.295 15.0259 42.9949 16.6147 43.0083 18.4972C43.0217 20.3796 43.3444 21.9684 43.9764 23.2635C44.6155 24.5586 45.4682 25.5387 46.5345 26.204C47.6079 26.8692 48.8028 27.2018 50.1191 27.2018C51.4354 27.2018 52.622 26.8692 53.6789 26.204C54.7428 25.5387 55.5815 24.5586 56.1951 23.2635C56.8157 21.9684 57.1193 20.3796 57.1059 18.4972ZM64.1579 29.3674L64.0031 7.62695H66.6357L66.7125 18.4122H66.9673L76.657 7.62695H80.0965L71.0368 17.4356L80.2513 29.3674H77.0666L69.4362 19.2615L66.7404 22.3187L66.7906 29.3674H64.1579ZM100.904 18.4972C100.92 20.7901 100.52 22.7716 99.704 24.4418C98.8878 26.112 97.7611 27.4 96.3238 28.3058C94.8866 29.2117 93.2408 29.6646 91.3866 29.6646C89.5324 29.6646 87.8802 29.2117 86.43 28.3058C84.9798 27.4 83.8348 26.112 82.9949 24.4418C82.1549 22.7716 81.7268 20.7901 81.7105 18.4972C81.6942 16.2042 82.0941 14.2227 82.9102 12.5525C83.7263 10.8824 84.853 9.59435 86.2903 8.6885C87.7276 7.78265 89.3733 7.32972 91.2276 7.32972C93.0818 7.32972 94.734 7.78265 96.1841 8.6885C97.6343 9.59435 98.7794 10.8824 99.6193 12.5525C100.459 14.2227 100.887 16.2042 100.904 18.4972ZM98.3559 18.4972C98.3425 16.6147 98.0163 15.0259 97.3772 13.7308C96.7452 12.4357 95.8925 11.4556 94.8191 10.7904C93.7528 10.1251 92.5614 9.7925 91.2451 9.7925C89.9287 9.7925 88.7386 10.1251 87.6747 10.7904C86.6179 11.4556 85.7791 12.4357 85.1585 13.7308C84.5449 15.0259 84.2448 16.6147 84.2583 18.4972C84.2717 20.3796 84.5944 21.9684 85.2264 23.2635C85.8655 24.5586 86.7182 25.5387 87.7845 26.204C88.8578 26.8692 90.0527 27.2018 91.3691 27.2018C92.6854 27.2018 93.872 26.8692 94.9288 26.204C95.9927 25.5387 96.8315 24.5586 97.445 23.2635C98.0657 21.9684 98.3693 20.3796 98.3559 18.4972Z" fill="#36548A"/>
</svg>
